<svg version="1.1" xmlns="http://www.w3.org/2000/svg" xmlns:xlink="http://www.w3.org/1999/xlink" width="50px" height="50px" viewBox="0,0,256,256"><g fill="#2f7e79" fill-rule="nonzero" stroke="none" stroke-width="1" stroke-linecap="butt" stroke-linejoin="miter" stroke-miterlimit="10" stroke-dasharray="" stroke-dashoffset="0" font-family="none" font-weight="none" font-size="none" text-anchor="none" style="mix-blend-mode: normal"><g transform="scale(5.12,5.12)"><path d="M23.39844,2.03125c-1.369,0.103 -2.32972,1.2245 -3.01172,2.1875c-0.67,0.938 -1.76011,0.98047 -3.78711,0.98047c-1.443,0 -3.42389,0.16006 -3.96289,1.53906c-0.251,0.64 -0.23014,1.69636 1.25586,3.06836l0.18359,0.17773c1.246,1.182 2.60806,2.71639 3.16406,4.02539c1.639,1.091 4.34577,1.99023 6.75977,1.99023c4,0 6.75,-2.17578 6.75,-2.17578c0.441,-2.338 2.2963,-4.80666 2.5293,-5.09766l0.0918,-0.13086c0.682,-1.071 1.61533,-2.53955 0.98633,-3.68555c-0.228,-0.416 -0.73442,-0.91016 -1.85742,-0.91016c-0.793,0 -1.56741,0.18719 -2.31641,0.36719c-1.351,0.325 -2.20572,0.49445 -2.76172,-0.06055c-1.144,-1.188 -2.55044,-2.38139 -4.02344,-2.27539zM23.54688,4.02539c0.511,-0.026 1.33031,0.52264 2.44531,1.68164c1.391,1.391 3.2012,0.95352 4.6582,0.60352c0.441,-0.106 0.85881,-0.18228 1.25781,-0.23828c0.011,0.317 -0.83875,0.97364 -1.59375,1.55664c-0.594,0.458 -1.26723,0.97777 -1.99023,1.63477c-0.554,0.507 -1.22814,0.80463 -1.74414,0.76563c-0.293,-0.02 -0.51831,-0.13661 -0.69531,-0.34961c-0.975,-1.231 -1.82953,-1.80995 -2.76953,-1.87695c-1.345,-0.1 -2.37844,0.90414 -3.39844,1.86914c-0.379,0.356 -0.85025,0.49711 -1.40625,0.41211c-1.113,-0.166 -2.31891,-1.14842 -3.37891,-2.73242c0.32,-0.079 0.83897,-0.15234 1.66797,-0.15234c2.116,0 4.11597,0.00169 5.41797,-1.82031c0.622,-0.879 1.1223,-1.32252 1.5293,-1.35352zM37.76758,13.00391c-2.8582,0.03058 -5.17887,1.62205 -6.76562,2.70899c-0.41,0.281 -0.77789,0.53394 -1.08789,0.71094c-2.515,1.389 -4.85258,1.56222 -6.39258,1.57422c-3.016,0.049 -5.08747,-0.8992 -5.10547,-0.9082l-0.30859,-0.14258l-0.33203,0.07617c-7.08,1.612 -13.77539,10.39517 -13.77539,18.07617c0,10.905 7.072,12.90039 21,12.90039c13.928,0 21,-1.99539 21,-12.90039c0,-7.69577 -6.11352,-14.54619 -12.58789,-17.53125c0.428,-0.05086 0.87347,-0.08069 1.33594,-0.06836c1.68178,0.04485 3.47567,0.54922 5.02539,2.1875c0.24559,0.2597 0.61109,0.36861 0.95878,0.28571c0.34768,-0.08291 0.62471,-0.34504 0.72668,-0.68762c0.10198,-0.34258 0.0134,-0.71354 -0.23234,-0.97309c-1.78796,-1.89012 -3.95762,-2.62443 -5.90039,-2.77734c1.64235,-0.65081 3.54026,-0.83982 5.69141,0.3418c0.485,0.266 1.09338,0.08652 1.35938,-0.39648c0.266,-0.484 0.08852,-1.09142 -0.39648,-1.35742c-1.5025,-0.82437 -2.91371,-1.13304 -4.21289,-1.11914zM18,24h12c0.552,0 1,0.448 1,1c0,0.552 -0.448,1 -1,1h-4.02539c0.442,0.584 0.77283,1.257 0.92383,2h3.10156c0.552,0 1,0.448 1,1c0,0.552 -0.448,1 -1,1h-3.10156c-0.465,2.279 -2.48344,4 -4.89844,4h-1.79687l5.55078,6.3418c0.364,0.416 0.3203,1.04616 -0.0957,1.41016c-0.19,0.166 -0.4242,0.24805 -0.6582,0.24805c-0.278,0 -0.55591,-0.1168 -0.75391,-0.3418l-7,-8c-0.258,-0.295 -0.31825,-0.71331 -0.15625,-1.07031c0.162,-0.358 0.51716,-0.58789 0.91016,-0.58789h4c1.302,0 2.40241,-0.839 2.81641,-2h-6.81641c-0.552,0 -1,-0.448 -1,-1c0,-0.552 0.448,-1 1,-1h6.81641c-0.414,-1.161 -1.51441,-2 -2.81641,-2h-4c-0.552,0 -1,-0.448 -1,-1c0,-0.552 0.448,-1 1,-1z"></path></g></g></svg>